<svg xmlns="http://www.w3.org/2000/svg" viewBox="0 0 120 120"><circle cx="60" cy="60" r="56" fill="#FFE0B2"/><circle cx="60" cy="60" r="50" fill="#FF9800"/><circle cx="42" cy="52" r="6" fill="#fff"/><circle cx="78" cy="52" r="6" fill="#fff"/><circle cx="42" cy="52" r="3" fill="#333"/><circle cx="78" cy="52" r="3" fill="#333"/><ellipse cx="60" cy="68" rx="8" ry="5" fill="#FFE0B2"/><path d="M56 70 Q60 76 64 70" fill="none" stroke="#333" stroke-width="1.5" stroke-linecap="round"/><path d="M30 30 Q25 8 45 22" fill="#FF9800" stroke="none"/><path d="M90 30 Q95 8 75 22" fill="#FF9800" stroke="none"/><path d="M54 65 L60 68 L66 65" fill="none" stroke="#333" stroke-width="1.2" stroke-linecap="round"/><line x1="28" y1="58" x2="16" y2="54" stroke="#333" stroke-width="1.2"/><line x1="28" y1="62" x2="16" y2="64" stroke="#333" stroke-width="1.2"/><line x1="92" y1="58" x2="104" y2="54" stroke="#333" stroke-width="1.2"/><line x1="92" y1="62" x2="104" y2="64" stroke="#333" stroke-width="1.2"/></svg>
