<svg xmlns="http://www.w3.org/2000/svg" viewBox="0 0 120 120"><circle cx="60" cy="60" r="56" fill="#FFE0B2"/><circle cx="60" cy="60" r="50" fill="#FF7043"/><circle cx="42" cy="52" r="5" fill="#fff"/><circle cx="78" cy="52" r="5" fill="#fff"/><circle cx="43" cy="53" r="2.5" fill="#333"/><circle cx="79" cy="53" r="2.5" fill="#333"/><ellipse cx="60" cy="66" rx="5" ry="3" fill="#333"/><path d="M55 70 Q60 74 65 70" fill="none" stroke="#333" stroke-width="1.5" stroke-linecap="round"/><path d="M28 28 Q20 6 48 24" fill="#FF7043" stroke="none"/><path d="M92 28 Q100 6 72 24" fill="#FF7043" stroke="none"/><ellipse cx="60" cy="60" rx="50" ry="50" fill="none" stroke="none"/><path d="M38 60 Q30 58 24 62" fill="none" stroke="#fff" stroke-width="2.5" stroke-linecap="round"/><path d="M82 60 Q90 58 96 62" fill="none" stroke="#fff" stroke-width="2.5" stroke-linecap="round"/><ellipse cx="48" cy="72" rx="8" ry="5" fill="#FFE0B2" opacity="0.4"/><ellipse cx="72" cy="72" rx="8" ry="5" fill="#FFE0B2" opacity="0.4"/></svg>
