<svg xmlns="http://www.w3.org/2000/svg" viewBox="0 0 120 120"><circle cx="60" cy="60" r="56" fill="#E8EAF6"/><rect x="24" y="22" rx="16" ry="16" width="72" height="76" fill="#78909C"/><rect x="34" y="36" rx="4" ry="4" width="52" height="24" fill="#263238"/><circle cx="48" cy="48" r="4" fill="#4FC3F7"/><circle cx="72" cy="48" r="4" fill="#4FC3F7"/><rect x="44" y="66" rx="2" ry="2" width="32" height="4" fill="#455A64"/><rect x="46" y="66" rx="1" ry="1" width="6" height="4" fill="#4FC3F7"/><rect x="54" y="66" rx="1" ry="1" width="6" height="4" fill="#FF7043"/><rect x="62" y="66" rx="1" ry="1" width="6" height="4" fill="#66BB6A"/><rect x="70" y="66" rx="1" ry="1" width="6" height="4" fill="#FFC107"/><rect x="14" y="50" rx="4" ry="4" width="10" height="20" fill="#78909C"/><rect x="96" y="50" rx="4" ry="4" width="10" height="20" fill="#78909C"/><circle cx="60" cy="28" r="3" fill="#4FC3F7"/></svg>
