<svg xmlns="http://www.w3.org/2000/svg" viewBox="0 0 120 120"><defs><linearGradient id="ug" x1="0%" y1="0%" x2="100%" y2="100%"><stop offset="0%" stop-color="#E1BEE7"/><stop offset="50%" stop-color="#F8BBD0"/><stop offset="100%" stop-color="#BBDEFB"/></linearGradient></defs><circle cx="60" cy="60" r="56" fill="#F3E5F5"/><circle cx="60" cy="60" r="50" fill="url(#ug)"/><circle cx="42" cy="52" r="5" fill="#fff"/><circle cx="78" cy="52" r="5" fill="#fff"/><circle cx="42" cy="53" r="2.5" fill="#7B1FA2"/><circle cx="78" cy="53" r="2.5" fill="#7B1FA2"/><path d="M55 68 Q60 73 65 68" fill="none" stroke="#7B1FA2" stroke-width="1.5" stroke-linecap="round"/><path d="M60 12 L63 28 L70 16 L65 30 L76 22 L68 34 L60 30 L52 34 L44 22 L55 30 L50 16 L57 28 Z" fill="#FFC107"/><ellipse cx="48" cy="64" rx="6" ry="4" fill="#FCE4EC" opacity="0.5"/><ellipse cx="72" cy="64" rx="6" ry="4" fill="#FCE4EC" opacity="0.5"/></svg>
